<svg xmlns="http://www.w3.org/2000/svg" width="19.031" height="15.031" viewBox="0 0 19.031 15.031">
  <metadata><?xpacket begin="﻿" id="W5M0MpCehiHzreSzNTczkc9d"?>
<x:xmpmeta xmlns:x="adobe:ns:meta/" x:xmptk="Adobe XMP Core 5.6-c142 79.160924, 2017/07/13-01:06:39        ">
   <rdf:RDF xmlns:rdf="http://www.w3.org/1999/02/22-rdf-syntax-ns#">
      <rdf:Description rdf:about=""/>
   </rdf:RDF>
</x:xmpmeta>
                                                                                                    
                                                                                                    
                                                                                                    
                                                                                                    
                                                                                                    
                                                                                                    
                                                                                                    
                                                                                                    
                                                                                                    
                                                                                                    
                                                                                                    
                                                                                                    
                                                                                                    
                                                                                                    
                                                                                                    
                                                                                                    
                                                                                                    
                                                                                                    
                                                                                                    
                                                                                                    
                           
<?xpacket end="w"?></metadata>
<defs>
    <style>
      .cls-1 {
        fill: #eee;
        fill-rule: evenodd;
      }
    </style>
  </defs>
  <path class="cls-1" d="M737.755,552.379a1.555,1.555,0,0,1-2.134.381l-6.306-4.275a1.487,1.487,0,0,1-.661-1.288,5.565,5.565,0,0,1-3.074,1.64,5.639,5.639,0,0,1-4.175-.881,5.419,5.419,0,0,1-2.313-3.514,5.339,5.339,0,0,1,.9-4.091,5.663,5.663,0,0,1,7.764-1.384,5.41,5.41,0,0,1,1.837,6.9,1.558,1.558,0,0,1,1.468.149l6.308,4.274A1.483,1.483,0,0,1,737.755,552.379Zm-9.349-9.6a3.772,3.772,0,0,0-1.612-2.45,3.949,3.949,0,0,0-5.415.963,3.767,3.767,0,0,0,.986,5.3,3.947,3.947,0,0,0,5.414-.964A3.721,3.721,0,0,0,728.406,542.779Z" transform="translate(-719 -538)"/>
</svg>
